<?xml version="1.0" encoding="utf-8"?>
<!-- Generator: Adobe Illustrator 24.0.1, SVG Export Plug-In . SVG Version: 6.00 Build 0)  -->
<svg version="1.1" id="Camada_1" xmlns="http://www.w3.org/2000/svg" xmlns:xlink="http://www.w3.org/1999/xlink" x="0px" y="0px"
	 viewBox="0 0 1673 333" style="enable-background:new 0 0 1673 333;" xml:space="preserve">
<style type="text/css">
	.st0{fill-rule:evenodd;clip-rule:evenodd;fill:#00B5F6;stroke:#0098DA;stroke-width:2.3599;stroke-miterlimit:53.566;}
	.st1{fill-rule:evenodd;clip-rule:evenodd;fill:#00B5F6;stroke:#0098DA;stroke-width:0.8879;stroke-miterlimit:53.566;}
	.st2{fill-rule:evenodd;clip-rule:evenodd;fill:#00B5F6;stroke:#00B5F6;stroke-width:2.3599;stroke-miterlimit:53.566;}
	.st3{fill:#00B5F6;}
	.st4{clip-path:url(#SVGID_2_);}
	.st5{fill-rule:evenodd;clip-rule:evenodd;fill:#FEFEFE;stroke:#FEFEFE;stroke-width:0.8879;stroke-miterlimit:53.566;}
	.st6{fill:none;}
</style>
<g id="Layer_x0020_1">
	<g id="_1003545168">
		<path class="st0" d="M252.9,11.6c43.9,26.8,51.7,92.5,65.1,129.7c17.5,57.4,73.1,92.9,96.4,100.9c-3.9,11.2-10.5,19.1-22.6,23.5
			c-85.6,19.3-145,18.4-243-59.6c17.7,71.8,82.6,125.1,159.9,125.1c90.9,0,164.7-73.7,164.7-164.7S399.6,1.9,308.7,1.9
			C289.1,1.9,270.3,5.4,252.9,11.6L252.9,11.6z"/>
		<path class="st1" d="M6.3,175.6c119.3-60.4,139.9,37.9,243.3,74.6c22.3,7.9,82.5,17,104.6,6c-182.9-15.1-156-203.1-309.3-107.9
			L6.3,175.6L6.3,175.6z"/>
		<path class="st1" d="M128.7,20.8c88.3,4.5,94.8,40.3,128.7,110c14.2,29.1,29.7,52.7,48.6,69.8c15.7,14.2,48.2,39.3,76.4,44
			c-8.9-9.9-35.9-20.8-61.2-60.8c-41.1-65-25.1-136.8-83.4-161.7C215.7,12.5,150.7,11.3,128.7,20.8L128.7,20.8z"/>
		<path class="st1" d="M73.9,95.8c42.8-4.4,60.1-8,91.6,15.5c25.1,18.7,52.2,62.5,80.7,88.3c31.9,28.8,73.4,51,121.5,51.5
			c-0.4-0.3-0.9-1.1-1.1-0.7l-20.4-8.8c-54.2-24.1-76.7-58.6-105.4-110.9c-41.4-75.2-82.9-68.3-155-41.3c-2.1,0.8-4.5,1.5-6.1,2.4
			L73.9,95.8L73.9,95.8z"/>
		<rect x="341.8" y="167.1" class="st2" width="104.3" height="90.3"/>
		<path class="st3" d="M573.1,143.2c0,3-0.1,5.5-0.3,7.5c-0.2,2-0.4,3.5-0.7,4.5c-0.4,1.1-0.8,1.9-1.4,2.3c-0.6,0.4-1.2,0.6-2.1,0.6
			c-0.7,0-1.4-0.1-2.3-0.4c-0.8-0.3-1.8-0.6-2.9-1c-1-0.4-2.2-0.7-3.5-1c-1.3-0.3-2.7-0.4-4.2-0.4c-1.8,0-3.5,0.4-5.3,1.1
			c-1.8,0.7-3.6,1.8-5.5,3.4c-1.9,1.5-3.9,3.6-6,6.1c-2.1,2.5-4.3,5.7-6.6,9.4v70.4c0,0.8-0.3,1.5-0.8,2.2c-0.5,0.6-1.4,1.2-2.6,1.6
			c-1.2,0.4-2.9,0.7-4.8,1c-2,0.2-4.6,0.3-7.7,0.3c-3.1,0-5.7-0.1-7.7-0.3c-2-0.2-3.6-0.6-4.8-1c-1.3-0.4-2.1-1-2.6-1.6
			c-0.5-0.7-0.8-1.4-0.8-2.2V132.7c0-0.8,0.2-1.5,0.6-2.2c0.4-0.7,1.2-1.2,2.2-1.6c1.1-0.4,2.5-0.7,4.2-0.9c1.7-0.2,3.9-0.3,6.5-0.3
			c2.7,0,4.9,0.1,6.7,0.3c1.8,0.2,3.2,0.6,4.1,0.9c1,0.4,1.6,1,2.1,1.6c0.4,0.7,0.6,1.4,0.6,2.2v14.1c2.9-4.2,5.7-7.7,8.3-10.4
			c2.6-2.7,5.1-4.9,7.5-6.5c2.4-1.6,4.7-2.7,7.1-3.3c2.3-0.7,4.7-1,7.1-1c1.1,0,2.3,0,3.6,0.2c1.2,0.1,2.6,0.3,3.9,0.6
			c1.3,0.3,2.5,0.7,3.5,1c1.1,0.4,1.8,0.8,2.2,1.2c0.4,0.4,0.8,0.9,1,1.4c0.2,0.5,0.4,1.2,0.6,2.1c0.2,0.9,0.3,2.2,0.4,4
			C573.1,137.8,573.1,140.2,573.1,143.2z M683.1,246c0,1.2-0.4,2.1-1.2,2.8c-0.9,0.7-2.2,1.2-4,1.5c-1.8,0.3-4.5,0.4-8.1,0.4
			c-3.8,0-6.6-0.1-8.3-0.4c-1.7-0.3-3-0.8-3.7-1.5c-0.7-0.7-1.1-1.6-1.1-2.8v-9c-4.6,5-9.9,8.8-15.9,11.6
			c-5.9,2.8-12.5,4.1-19.8,4.1c-6,0-11.5-0.8-16.5-2.3c-5-1.6-9.3-3.9-13-7c-3.7-3.1-6.5-6.9-8.6-11.4c-2-4.6-3-9.9-3-15.9
			c0-6.6,1.3-12.3,3.8-17.1c2.6-4.9,6.4-8.9,11.5-12.1c5.1-3.2,11.4-5.5,19-7c7.5-1.5,16.4-2.3,26.4-2.3h11v-6.8
			c0-3.5-0.4-6.6-1.1-9.3c-0.7-2.6-1.9-4.9-3.6-6.6c-1.6-1.8-3.8-3.1-6.6-3.9c-2.7-0.8-6.1-1.3-10.1-1.3c-5.3,0-10,0.6-14.2,1.8
			c-4.2,1.2-7.9,2.5-11.1,3.9c-3.2,1.4-5.9,2.8-8,3.9s-3.9,1.8-5.2,1.8c-1,0-1.8-0.3-2.5-0.9c-0.7-0.6-1.3-1.5-1.8-2.5
			c-0.5-1.1-0.8-2.5-1.1-4.1c-0.3-1.6-0.4-3.4-0.4-5.3c0-2.6,0.2-4.7,0.6-6.2c0.4-1.5,1.2-2.9,2.4-4.1c1.2-1.2,3.2-2.5,6.2-4
			c2.9-1.5,6.4-2.9,10.4-4.1c4-1.3,8.3-2.3,13-3.1c4.7-0.8,9.5-1.2,14.5-1.2c8.9,0,16.4,0.9,22.7,2.6c6.3,1.7,11.4,4.4,15.4,8
			c4.1,3.6,7,8.2,8.9,13.9c1.8,5.6,2.8,12.3,2.8,20.1V246L683.1,246z M651.7,197.5h-12.1c-5.1,0-9.5,0.4-13.1,1.1
			c-3.6,0.8-6.6,1.9-8.8,3.4c-2.3,1.5-3.9,3.3-5,5.5c-1.1,2.1-1.6,4.6-1.6,7.4c0,4.7,1.5,8.5,4.5,11.1c3,2.7,7.1,4.1,12.4,4.1
			c4.4,0,8.6-1.1,12.3-3.4c3.8-2.3,7.6-5.6,11.4-10L651.7,197.5L651.7,197.5z M794.3,213.7c0,6.4-1.2,12-3.6,16.9
			c-2.4,4.9-5.8,8.9-10.2,12.3c-4.4,3.3-9.6,5.7-15.6,7.4c-6,1.6-12.5,2.5-19.5,2.5c-4.2,0-8.3-0.3-12.1-0.9
			c-3.8-0.7-7.2-1.5-10.3-2.5c-3-0.9-5.6-1.9-7.6-3c-2-1-3.5-2-4.4-2.9c-1-0.9-1.7-2.3-2.1-4.2c-0.5-1.8-0.8-4.6-0.8-8.4
			c0-2.4,0.1-4.4,0.3-5.8c0.2-1.5,0.4-2.7,0.7-3.5c0.4-0.9,0.8-1.5,1.3-1.8c0.5-0.3,1.1-0.4,1.9-0.4c0.9,0,2.3,0.5,4.1,1.6
			c1.8,1.1,4.1,2.2,6.8,3.5c2.7,1.3,5.8,2.5,9.4,3.6c3.6,1.1,7.7,1.7,12.2,1.7c2.9,0,5.4-0.3,7.6-0.9c2.2-0.6,4.2-1.4,5.8-2.5
			c1.6-1.1,2.9-2.5,3.8-4.2c0.8-1.7,1.2-3.6,1.2-5.8c0-2.5-0.8-4.7-2.3-6.5c-1.6-1.8-3.7-3.4-6.2-4.8c-2.6-1.3-5.5-2.6-8.8-3.8
			c-3.2-1.2-6.6-2.5-10-3.9c-3.4-1.4-6.8-3.1-10-4.9c-3.2-1.8-6.2-4.1-8.8-6.8c-2.5-2.7-4.6-6-6.2-9.7c-1.5-3.8-2.3-8.4-2.3-13.7
			c0-5.4,1.1-10.3,3.2-14.8c2.1-4.5,5.1-8.4,9.1-11.6c4-3.2,8.9-5.7,14.6-7.5c5.7-1.8,12.1-2.6,19.3-2.6c3.6,0,7,0.3,10.4,0.7
			c3.3,0.5,6.4,1.2,9.1,1.9c2.7,0.8,5,1.6,6.9,2.5c1.8,0.9,3.2,1.6,4,2.2c0.8,0.7,1.4,1.3,1.7,1.9c0.3,0.6,0.6,1.4,0.7,2.3
			c0.2,0.8,0.3,2,0.5,3.3c0.1,1.3,0.2,2.9,0.2,4.9c0,2.3,0,4.1-0.2,5.6c-0.1,1.4-0.4,2.6-0.7,3.4c-0.3,0.9-0.7,1.4-1.2,1.7
			c-0.5,0.3-1.1,0.4-1.8,0.4c-0.8,0-2-0.4-3.6-1.3c-1.6-0.9-3.6-1.8-6-2.8c-2.4-1-5.2-1.9-8.4-2.8c-3.2-0.9-6.8-1.3-10.9-1.3
			c-2.9,0-5.4,0.3-7.5,0.8c-2.1,0.6-3.9,1.5-5.2,2.6c-1.3,1.1-2.4,2.4-3,3.8c-0.7,1.5-1.1,3.1-1.1,4.7c0,2.6,0.8,4.8,2.4,6.6
			c1.6,1.8,3.7,3.3,6.3,4.6c2.6,1.4,5.6,2.6,8.9,3.8c3.3,1.2,6.7,2.5,10.1,3.8c3.4,1.4,6.8,3,10.1,4.9c3.3,1.9,6.4,4.2,8.9,6.8
			c2.6,2.7,4.8,5.9,6.4,9.7C793.5,204,794.3,208.5,794.3,213.7L794.3,213.7z M850,245.6c0,0.8-0.3,1.5-0.8,2.2
			c-0.5,0.6-1.3,1.2-2.6,1.6c-1.2,0.4-2.9,0.7-4.8,1c-2,0.2-4.6,0.3-7.7,0.3c-3.1,0-5.7-0.1-7.7-0.3c-2-0.2-3.6-0.6-4.8-1
			c-1.2-0.4-2.1-1-2.6-1.6c-0.5-0.7-0.8-1.4-0.8-2.2V132.9c0-0.8,0.3-1.5,0.8-2.2c0.5-0.7,1.4-1.2,2.6-1.6c1.2-0.5,2.9-0.8,4.8-1.1
			c2-0.3,4.6-0.4,7.7-0.4c3.1,0,5.7,0.1,7.7,0.4c2,0.3,3.6,0.6,4.8,1.1c1.3,0.4,2.1,1,2.6,1.6c0.5,0.7,0.8,1.4,0.8,2.2V245.6z
			 M852.6,94.3c0,6.4-1.3,10.8-3.9,13.3c-2.6,2.5-7.5,3.7-14.6,3.7c-7.2,0-12.1-1.2-14.5-3.6c-2.5-2.4-3.8-6.6-3.8-12.8
			c0-6.4,1.3-10.9,3.9-13.4c2.6-2.5,7.4-3.7,14.6-3.7c7.1,0,11.9,1.2,14.5,3.6C851.4,83.9,852.6,88.2,852.6,94.3L852.6,94.3z
			 M913.6,245.6c0,0.8-0.3,1.5-0.8,2.2c-0.5,0.6-1.3,1.2-2.6,1.6c-1.2,0.4-2.9,0.7-4.8,1c-2,0.2-4.6,0.3-7.7,0.3
			c-3.1,0-5.7-0.1-7.7-0.3c-2-0.2-3.6-0.6-4.8-1c-1.3-0.4-2.1-1-2.6-1.6c-0.5-0.7-0.8-1.4-0.8-2.2V79.2c0-0.9,0.3-1.6,0.8-2.3
			c0.5-0.6,1.3-1.2,2.6-1.7c1.2-0.5,2.9-0.8,4.8-1.1c2-0.3,4.6-0.4,7.7-0.4c3.1,0,5.7,0.1,7.7,0.4c2,0.3,3.6,0.6,4.8,1.1
			c1.3,0.4,2.1,1.1,2.6,1.7c0.5,0.7,0.8,1.4,0.8,2.3V245.6z"/>
		<path class="st3" d="M1071.1,202.1c0,5.9-0.8,11.3-2.5,16.1c-1.6,4.8-3.8,9-6.7,12.7c-2.9,3.7-6.3,6.8-10.2,9.5
			c-4,2.7-8.4,4.8-13.1,6.6c-4.8,1.7-9.9,3-15.3,3.8c-5.4,0.8-11.4,1.2-18.1,1.2h-44.1c-2.8,0-5.2-0.8-7.1-2.5
			c-1.9-1.7-2.9-4.4-2.9-8.1V96.6c0-3.8,1-6.5,2.9-8.1c1.9-1.7,4.3-2.5,7.1-2.5h41.6c10.2,0,18.7,0.9,25.8,2.6
			c7.1,1.7,13,4.3,17.8,7.7c4.9,3.5,8.5,7.8,11.1,13.1c2.6,5.3,3.9,11.5,3.9,18.7c0,4-0.5,7.8-1.5,11.3c-1,3.5-2.5,6.8-4.5,9.7
			c-2,2.9-4.4,5.5-7.3,7.7c-2.9,2.2-6.1,4-9.8,5.4c4.7,0.9,9.1,2.4,13,4.5c4,2.1,7.5,4.9,10.4,8.3c3,3.4,5.3,7.4,7,11.9
			C1070.2,191.4,1071.1,196.4,1071.1,202.1L1071.1,202.1z M1027.5,132.2c0-3.3-0.5-6.3-1.5-9c-1-2.6-2.5-4.9-4.6-6.6
			c-2.1-1.8-4.6-3.1-7.8-4c-3.1-0.9-7.3-1.4-12.5-1.4h-17v43.1h18.8c4.9,0,8.8-0.6,11.6-1.8c2.9-1.1,5.3-2.7,7.2-4.7
			c1.9-2,3.3-4.4,4.3-7C1027,138,1027.5,135.2,1027.5,132.2L1027.5,132.2z M1036.2,203.3c0-3.9-0.7-7.3-1.9-10.4
			c-1.3-3-3.1-5.6-5.6-7.6c-2.5-2.1-5.6-3.6-9.5-4.8c-3.9-1.1-8.8-1.7-15-1.7h-20v47.2h24.3c4.7,0,8.6-0.5,11.9-1.5
			c3.2-1,5.9-2.5,8.3-4.4c2.3-1.9,4.1-4.3,5.5-7.2C1035.5,210.3,1036.2,207,1036.2,203.3z M1128.7,247.5c0,0.8-0.3,1.6-0.8,2.2
			c-0.5,0.7-1.4,1.2-2.6,1.6c-1.2,0.4-2.9,0.7-4.9,1c-2.1,0.2-4.7,0.3-7.8,0.3c-3.2,0-5.8-0.1-7.9-0.3c-2-0.2-3.7-0.6-4.9-1
			c-1.3-0.4-2.1-1-2.6-1.6c-0.5-0.7-0.8-1.4-0.8-2.2V133.3c0-0.8,0.3-1.6,0.8-2.2c0.5-0.7,1.4-1.2,2.6-1.7c1.2-0.5,2.9-0.8,4.9-1.1
			c2.1-0.3,4.7-0.4,7.9-0.4c3.1,0,5.8,0.1,7.8,0.4c2,0.3,3.7,0.6,4.9,1.1c1.3,0.4,2.1,1,2.6,1.7c0.5,0.7,0.8,1.4,0.8,2.2V247.5z
			 M1131.3,94.2c0,6.5-1.3,11-4,13.5c-2.7,2.5-7.6,3.7-14.8,3.7c-7.3,0-12.2-1.2-14.7-3.6c-2.5-2.4-3.8-6.7-3.8-12.9
			c0-6.5,1.3-11,3.9-13.6c2.6-2.5,7.5-3.8,14.8-3.8c7.2,0,12.1,1.2,14.6,3.7C1130.1,83.6,1131.3,87.9,1131.3,94.2z M1228.6,236.3
			c0,3.8-0.2,6.7-0.7,8.7c-0.5,2-1.1,3.4-1.9,4.2c-0.7,0.8-1.9,1.6-3.4,2.2c-1.5,0.7-3.3,1.2-5.3,1.7c-2,0.5-4.2,0.8-6.5,1.1
			c-2.4,0.3-4.7,0.4-7.1,0.4c-6.4,0-11.9-0.8-16.7-2.5c-4.7-1.6-8.6-4.1-11.7-7.5c-3.1-3.4-5.3-7.6-6.8-12.8
			c-1.4-5.1-2.2-11.2-2.2-18.2V155h-13.9c-1.6,0-2.9-1-3.7-3c-0.9-2-1.3-5.4-1.3-10.1c0-2.5,0.1-4.6,0.3-6.3c0.2-1.7,0.6-3.1,1-4.1
			c0.4-1,1-1.7,1.6-2.1c0.6-0.4,1.4-0.7,2.2-0.7h13.7v-25.6c0-0.8,0.2-1.6,0.7-2.3c0.5-0.7,1.4-1.2,2.6-1.7c1.2-0.5,2.9-0.8,5-1.1
			c2.1-0.2,4.7-0.3,7.8-0.3c3.2,0,5.8,0.1,7.9,0.3c2.1,0.2,3.8,0.6,5,1.1c1.2,0.5,2.1,1.1,2.5,1.7c0.5,0.7,0.8,1.5,0.8,2.3v25.6
			h24.8c0.9,0,1.6,0.2,2.2,0.7c0.7,0.4,1.2,1.1,1.6,2.1c0.4,1,0.7,2.4,1,4.1c0.2,1.7,0.3,3.8,0.3,6.3c0,4.7-0.4,8.1-1.3,10.1
			c-0.9,2-2.1,3-3.7,3h-25v53.7c0,6.3,1,10.9,2.9,14c2,3.1,5.5,4.7,10.5,4.7c1.7,0,3.2-0.1,4.6-0.4c1.4-0.3,2.6-0.7,3.6-1.1
			c1.1-0.4,2-0.7,2.7-1c0.7-0.3,1.4-0.4,2-0.4c0.5,0,1,0.1,1.5,0.4c0.4,0.3,0.8,0.9,1.1,1.8c0.2,0.9,0.5,2.1,0.7,3.6
			C1228.5,231.9,1228.6,233.9,1228.6,236.3z M1334.8,229.3c0,2.2,0,4.1-0.2,5.6c-0.1,1.5-0.3,2.8-0.5,3.8c-0.2,1-0.5,1.8-0.8,2.5
			c-0.3,0.7-1,1.4-2,2.5c-1.1,1-2.8,2.2-5.2,3.6c-2.5,1.4-5.3,2.7-8.5,3.8c-3.2,1.1-6.6,2-10.3,2.7c-3.7,0.7-7.6,1.1-11.5,1.1
			c-8.8,0-16.6-1.4-23.4-4.1c-6.8-2.7-12.5-6.8-17.2-12.1c-4.6-5.3-8.1-11.9-10.4-19.6c-2.4-7.7-3.6-16.5-3.6-26.4
			c0-11.4,1.4-21.4,4.3-29.7c2.9-8.4,6.9-15.3,12-20.7c5.1-5.5,11.2-9.5,18.2-12.2c7-2.7,14.7-4,23.1-4c3.4,0,6.7,0.3,10,0.9
			c3.3,0.6,6.4,1.4,9.2,2.4c2.9,1.1,5.4,2.2,7.7,3.5c2.3,1.3,3.9,2.4,4.8,3.4c1,0.9,1.6,1.7,2,2.4c0.4,0.7,0.7,1.5,0.9,2.5
			c0.2,1.1,0.4,2.3,0.5,3.8c0.1,1.5,0.2,3.3,0.2,5.5c0,5-0.4,8.5-1.3,10.5c-0.9,2-2,3-3.3,3c-1.4,0-3-0.6-4.6-1.8
			c-1.6-1.2-3.6-2.5-5.8-4c-2.2-1.4-4.8-2.8-7.9-4c-3.1-1.2-6.7-1.8-11-1.8c-8.4,0-14.8,3.2-19.3,9.7c-4.4,6.5-6.6,15.9-6.6,28.4
			c0,6.1,0.6,11.5,1.7,16.3c1.1,4.7,2.8,8.6,5,11.8c2.2,3.1,4.9,5.5,8.2,7.1c3.3,1.6,7.1,2.4,11.5,2.4c4.4,0,8.3-0.7,11.5-2
			c3.2-1.3,6-2.8,8.4-4.4c2.4-1.6,4.4-3.1,6-4.4c1.6-1.4,3-2,4.1-2c0.8,0,1.4,0.2,1.9,0.7c0.5,0.4,0.9,1.2,1.2,2.4
			c0.3,1.2,0.5,2.7,0.7,4.4C1334.8,224.1,1334.8,226.4,1334.8,229.3z M1472.5,189.2c0,9.7-1.3,18.6-3.9,26.6
			c-2.6,8-6.4,14.9-11.7,20.7c-5.2,5.8-11.7,10.3-19.6,13.5c-7.9,3.2-17.1,4.7-27.6,4.7c-10.2,0-19-1.4-26.6-4.2
			c-7.5-2.8-13.8-6.9-18.7-12.3c-5-5.4-8.6-12-11-19.9c-2.4-7.8-3.6-16.8-3.6-26.9c0-9.7,1.3-18.6,3.9-26.7
			c2.6-8.1,6.5-15,11.8-20.8c5.2-5.7,11.7-10.2,19.6-13.4c7.8-3.1,17-4.7,27.5-4.7c10.3,0,19.2,1.4,26.7,4.2
			c7.5,2.8,13.7,6.9,18.6,12.2c5,5.4,8.6,12,11,19.9C1471.4,170,1472.5,179,1472.5,189.2L1472.5,189.2z M1439.5,190.4
			c0-5.6-0.4-10.8-1.4-15.6c-0.9-4.8-2.4-8.9-4.6-12.4c-2.1-3.5-5-6.3-8.5-8.2c-3.6-2-8-2.9-13.5-2.9c-4.8,0-9,0.9-12.6,2.6
			c-3.6,1.8-6.6,4.3-8.9,7.7c-2.3,3.4-4.1,7.4-5.2,12.2c-1.2,4.8-1.8,10.1-1.8,16.2c0,5.7,0.5,10.9,1.4,15.6c1,4.8,2.5,8.9,4.6,12.4
			c2.1,3.5,4.9,6.2,8.6,8.1c3.6,1.9,8,2.9,13.4,2.9c4.9,0,9.1-0.9,12.8-2.6c3.6-1.8,6.6-4.3,8.9-7.6c2.3-3.4,4-7.4,5.2-12.1
			C1438.9,201.9,1439.5,196.5,1439.5,190.4L1439.5,190.4z M1530.5,247.5c0,0.8-0.3,1.6-0.8,2.2c-0.5,0.7-1.4,1.2-2.6,1.6
			c-1.2,0.4-2.9,0.7-4.9,1c-2.1,0.2-4.7,0.3-7.9,0.3c-3.2,0-5.8-0.1-7.8-0.3c-2-0.2-3.7-0.6-4.9-1c-1.3-0.4-2.1-1-2.6-1.6
			c-0.5-0.7-0.8-1.4-0.8-2.2V133.3c0-0.8,0.3-1.6,0.8-2.2c0.5-0.7,1.4-1.2,2.6-1.7c1.2-0.5,2.9-0.8,4.9-1.1c2.1-0.3,4.7-0.4,7.8-0.4
			c3.2,0,5.8,0.1,7.9,0.4c2,0.3,3.7,0.6,4.9,1.1c1.3,0.4,2.1,1,2.6,1.7c0.5,0.7,0.8,1.4,0.8,2.2V247.5z M1533.1,94.2
			c0,6.5-1.3,11-4,13.5c-2.7,2.5-7.6,3.7-14.8,3.7c-7.3,0-12.2-1.2-14.7-3.6c-2.5-2.4-3.8-6.7-3.8-12.9c0-6.5,1.3-11,3.9-13.6
			c2.6-2.5,7.5-3.8,14.8-3.8c7.2,0,12.1,1.2,14.6,3.7C1531.8,83.6,1533.1,87.9,1533.1,94.2z M1671.9,247.5c0,0.8-0.3,1.6-0.8,2.2
			c-0.5,0.7-1.4,1.2-2.5,1.6c-1.2,0.4-2.9,0.7-5,1c-2.1,0.2-4.7,0.3-7.7,0.3c-3.2,0-5.8-0.1-7.9-0.3c-2.1-0.2-3.8-0.6-5-1
			c-1.2-0.4-2.1-1-2.5-1.6c-0.5-0.7-0.8-1.4-0.8-2.2v-65.2c0-5.6-0.4-9.9-1.2-13.1c-0.8-3.2-2-5.9-3.5-8.1c-1.5-2.3-3.6-4-6-5.3
			c-2.5-1.2-5.3-1.8-8.5-1.8c-4.1,0-8.2,1.5-12.4,4.5c-4.2,3-8.5,7.4-13,13v76.1c0,0.8-0.3,1.6-0.8,2.2c-0.5,0.7-1.4,1.2-2.6,1.6
			c-1.2,0.4-2.9,0.7-4.9,1c-2.1,0.2-4.7,0.3-7.8,0.3c-3.2,0-5.8-0.1-7.8-0.3c-2-0.2-3.7-0.6-4.9-1c-1.3-0.4-2.1-1-2.6-1.6
			c-0.5-0.7-0.8-1.4-0.8-2.2V133.1c0-0.8,0.2-1.6,0.7-2.2c0.4-0.7,1.2-1.2,2.3-1.6c1.1-0.4,2.5-0.7,4.3-1c1.8-0.2,4-0.3,6.6-0.3
			c2.8,0,5,0.1,6.8,0.3c1.8,0.2,3.2,0.6,4.2,1c1,0.4,1.7,1,2.1,1.6c0.4,0.7,0.7,1.4,0.7,2.2v13.2c6.3-6.8,12.7-11.9,19.3-15.3
			c6.5-3.4,13.4-5.1,20.4-5.1c7.8,0,14.3,1.3,19.7,3.9c5.3,2.5,9.6,6,12.9,10.4c3.3,4.4,5.7,9.6,7.1,15.4c1.4,5.9,2.2,13,2.2,21.3
			L1671.9,247.5L1671.9,247.5z"/>
		<g>
			<defs>
				<path id="SVGID_1_" d="M306.7,0c92,0,166.5,74.5,166.5,166.5c0,91.9-74.5,166.5-166.5,166.5c-91.9,0-166.5-74.6-166.5-166.5
					C140.2,74.5,214.7,0,306.7,0z"/>
			</defs>
			<clipPath id="SVGID_2_">
				<use xlink:href="#SVGID_1_"  style="overflow:visible;"/>
			</clipPath>
			<g class="st4">
				<g id="_1003549616">
					<path class="st5" d="M370.3,175.9c11.2-1.7,35.9,0,46.2,2.6c12.5,3.2,24.4,10.4,24,25c-0.6,23.2-28.2,26.2-46.1,27.3
						c-5.6,0.3-19.1,0.8-24.2,0L370.3,175.9L370.3,175.9z M370.5,150.6c-0.5-1.5-0.6-47.5-0.1-50.2c10.8-1,29.7-0.3,39,2.5
						c26.5,8.1,20.8,31.8,13,37.8c-4.7,3.6-7.3,5.4-13.9,7C396.7,150.6,383.4,151.2,370.5,150.6L370.5,150.6z M344.6,302.6h25.1
						l0-41.1l20,0.1v41h25.1c0-6.3-0.9-38.4,0.4-41.5c4.2-1.6,25.9-0.2,44.9-9c13.5-6.3,20.9-13.4,26.4-27.5c5-12.5,5.8-34-0.2-45.7
						c-5-9.8-11.9-14.7-21.4-19.1c-3.5-1.6-7.1-2.1-10.3-3.6c1.1-1.5,14.6-6.9,19.2-22.2c4.8-16.1,1.5-36.3-11.6-47.2
						c-17.2-14.3-46-14.3-47.1-15.5c-0.5-0.6-0.4-3.7-0.4-4.5V30.5h-25.1c0,5.9,0.7,37.1-0.3,40.2l-19.7,0.1V30.5h-25.1l-0.2,41.3
						l-50.3-0.1l0,26.7c16.5,0.1,32.8-3.7,32.7,15.5v96.5c0,7.7,1.4,16.5-5,19.5c-4.8,2.2-17.1-0.1-22.8,1.1c-0.7,5-5,26.9-4.7,29.7
						l50.2,0.1V302.6z"/>
				</g>
			</g>
		</g>
		<path class="st6" d="M306.7,0c92,0,166.5,74.5,166.5,166.5c0,91.9-74.5,166.5-166.5,166.5c-91.9,0-166.5-74.6-166.5-166.5
			C140.2,74.5,214.7,0,306.7,0z"/>
	</g>
</g>
</svg>
